PathFileType	4	(X/Y/Z)	3_coords_data.trc
DataRate	CameraRate	NumFrames	NumMarkers	Units	OrigDataRate	OrigDataStartFrame	OrigNumFrames
30.0	30.0	8	21	m	30.0	30	78
Frame#	Time	THUMB_TIP	THUMB_IP	THUMB_MCP	THUMB_CMC	INDEX_TIP	INDEX_DIP	INDEX_PIP	INDEX_MCP	MIDDLE_TIP	MIDDLE_DIP	MIDDLE_PIP	MIDDLE_MCP	RING_TIP	RING_DIP	RING_PIP	RING_MCP	PINKY_TIP	PINKY_DIP	PINKY_PIP	PINKY_MCP	WRIST
X1	Y1	Z1	X2	Y2	Z2	X3	Y3	Z3	X4	Y4	Z4	X5	Y5	Z5	X6	Y6	Z6	X7	Y7	Z7	X8	Y8	Z8	X9	Y9	Z9	X10	Y10	Z10	X11	Y11	Z11	X12	Y12	Z12	X13	Y13	Z13	X14	Y14	Z14	X15	Y15	Z15	X16	Y16	Z16	X17	Y17	Z17	X18	Y18	Z18	X19	Y19	Z19	X20	Y20	Z20	X21	Y21	Z21
29	0.9666666666666667	-0.1787530059814453	-0.13508299255371095	0.931239013671875	-0.17027699279785155	-0.10921499633789063	0.9410830078125	-0.1719510040283203	-0.08780750274658203	0.9641920166015625	-0.1721470031738281	-0.05579579925537109	0.9871710205078125	-0.166875	-0.05814609909057617	0.960030029296875	-0.1477100067138672	-0.05133760070800781	0.9536950073242187	-0.14251300048828125	-0.04683340072631836	0.9309229736328125	-0.18104100036621093	-0.058609298706054684	0.92947998046875	-0.16156199645996094	-0.040348499298095704	0.9673599853515625	-0.15062899780273437	-0.03398709869384765	0.9625399780273437	-0.14626800537109375	-0.026581499099731447	0.9374219970703125	-0.1860249938964844	-0.03545330047607422	0.9294520263671875	-0.1717760009765625	-0.02829949951171875	0.9745999755859375	-0.15823399353027343	-0.01891230010986328	0.9696539916992187	-0.15422999572753907	-0.008429510116577148	0.9466920166015625	-0.1914029998779297	-0.015886300086975096	0.9386939697265625	-0.1760610046386719	-0.015477100372314452	0.9773909912109375	-0.16385000610351563	-0.005768730163574219	0.9731900024414063	-0.1642259979248047	0.004627520084381103	0.9579530029296875	-0.19553500366210938	0.000587019026279449	0.9504749755859375	-0.19116499328613282	-0.03486920166015625	1.0104199829101563
30	1.0	-0.1789810028076172	-0.1350050048828125	0.9310889892578125	-0.17041900634765625	-0.10925900268554688	0.9409869995117187	-0.17155900573730468	-0.0879000015258789	0.9640380249023438	-0.17117399597167968	-0.05573559951782227	0.9869149780273437	-0.16698300170898436	-0.0581171989440918	0.9600360107421875	-0.14804600524902345	-0.051088001251220705	0.9537899780273438	-0.14278199768066407	-0.04670830154418945	0.93085400390625	-0.1815240020751953	-0.058655998229980466	0.92960498046875	-0.16296600341796874	-0.040378501892089844	0.9674949951171875	-0.15069500732421875	-0.033983898162841794	0.9624299926757812	-0.14638400268554688	-0.026560400009155275	0.9374760131835937	-0.1862250061035156	-0.03538880157470703	0.9294749755859375	-0.17041000366210937	-0.027815900802612304	0.97518798828125	-0.15858299255371094	-0.01908259963989258	0.9695809936523437	-0.15412399291992188	-0.008536640167236329	0.9468159790039062	-0.1914499969482422	-0.015812700271606445	0.93868701171875	-0.17621699523925782	-0.01580970001220703	0.977260009765625	-0.1636699981689453	-0.005902979850769043	0.9732440185546875	-0.16425799560546875	0.004652249813079834	0.9578920288085937	-0.19522300720214844	0.0007031610012054441	0.9502670288085937	-0.19177799987792968	-0.034867698669433594	1.0108499755859375
31	1.0333333333333334	-0.17905799865722657	-0.13494700622558595	0.9310059814453125	-0.17053199768066407	-0.10927100372314454	0.9409459838867188	-0.1722530059814453	-0.08794989776611328	0.96406298828125	-0.1716199951171875	-0.05581949996948242	0.9869199829101563	-0.16713999938964844	-0.058085201263427734	0.9599669799804688	-0.14798300170898437	-0.051030998229980466	0.9537869873046875	-0.14287800598144532	-0.04670640182495117	0.9308900146484375	-0.1815500030517578	-0.05862060165405274	0.9295469970703125	-0.16172799682617187	-0.04020819854736328	0.967698974609375	-0.151302001953125	-0.03386880111694336	0.9623250122070313	-0.1464550018310547	-0.026551000595092772	0.9374719848632812	-0.18608099365234376	-0.03540719985961914	0.9292730102539063	-0.17047000122070313	-0.028414600372314452	0.9751489868164063	-0.1585399932861328	-0.019029600143432617	0.9696290283203125	-0.15453599548339844	-0.008331060409545898	0.9464739990234375	-0.19145599365234375	-0.015909199714660646	0.9385499877929687	-0.17609100341796874	-0.015785300254821777	0.977635009765625	-0.16389700317382813	-0.0058720998764038084	0.9732050170898437	-0.16535800170898438	0.004869559764862061	0.9580780029296875	-0.19613600158691405	0.0006687099933624261	0.950447998046875	-0.19186799621582032	-0.03485480117797852	1.01072998046875
32	1.0666666666666667	-0.17919400024414062	-0.1348990020751953	0.930948974609375	-0.17070199584960938	-0.1092969970703125	0.9408939819335937	-0.17236700439453126	-0.08787449645996094	0.964052978515625	-0.1717949981689453	-0.05571829986572266	0.9869000244140625	-0.1674029998779297	-0.05821179962158203	0.9599860229492188	-0.14843299865722656	-0.05098220062255859	0.953594970703125	-0.14322799682617188	-0.04658489990234375	0.9309310302734375	-0.18178599548339844	-0.058595199584960934	0.9294660034179687	-0.1624029998779297	-0.04067250061035156	0.9675709838867188	-0.15073199462890624	-0.034093799591064455	0.9627239990234375	-0.14662800598144532	-0.02653219985961914	0.9375269775390624	-0.18648699951171874	-0.03526729965209961	0.9293629760742188	-0.1704810028076172	-0.02804400062561035	0.9752150268554688	-0.15884700012207031	-0.01894339942932129	0.9694970092773437	-0.15489199829101563	-0.00834494972229004	0.946625	-0.19170199584960937	-0.015671600341796876	0.9386500244140625	-0.1757050018310547	-0.015890600204467774	0.9776929931640626	-0.16420799255371094	-0.005587220191955566	0.9732009887695312	-0.16490499877929687	0.0047320699691772465	0.957760009765625	-0.19618499755859375	0.0007669600248336791	0.9504509887695313	-0.19149099731445313	-0.034746498107910154	1.0106799926757812
33	1.1	-0.1794320068359375	-0.134843994140625	0.9308170166015625	-0.17126300048828125	-0.10905799865722657	0.9408619995117188	-0.17262899780273439	-0.08785420227050782	0.9639299926757813	-0.1719880065917969	-0.05570719909667969	0.986822021484375	-0.16789799499511718	-0.057602699279785154	0.9598670043945312	-0.14827999877929687	-0.0512406997680664	0.9537769775390625	-0.14338299560546874	-0.04665349960327148	0.9306790161132813	-0.1819600067138672	-0.058525501251220705	0.9294769897460937	-0.16255099487304686	-0.040468399047851565	0.96739501953125	-0.15197000122070312	-0.033765701293945315	0.9622420043945312	-0.14703700256347657	-0.02637150001525879	0.9367650146484375	-0.18661199951171875	-0.03532289886474609	0.9293670043945312	-0.16947300720214845	-0.02776840019226074	0.9754240112304687	-0.1588260040283203	-0.018986000061035156	0.969469970703125	-0.1550500030517578	-0.008392250061035156	0.9467319946289062	-0.19179100036621094	-0.01565410041809082	0.9385440063476562	-0.17639500427246094	-0.015983200073242186	0.9778480224609375	-0.1644250030517578	-0.005849480152130127	0.9731699829101562	-0.16474400329589844	0.004703869819641113	0.9577689819335937	-0.19573500061035157	0.0007799100279808041	0.950375	-0.1919709930419922	-0.03479510116577148	1.0107899780273437
34	1.1333333333333333	-0.17965299987792968	-0.13478399658203125	0.9306959838867187	-0.1713999938964844	-0.10905799865722657	0.94060302734375	-0.17291900634765625	-0.08770140075683594	0.9639030151367187	-0.1723459930419922	-0.05570790100097656	0.986833984375	-0.16638800048828126	-0.05805080032348633	0.9599840087890625	-0.14878700256347657	-0.050854598999023434	0.95339599609375	-0.14353999328613282	-0.0466510009765625	0.9307449951171874	-0.18220399475097657	-0.058383800506591796	0.9293359985351562	-0.16282899475097656	-0.040762901306152344	0.9676630249023438	-0.15245100402832032	-0.03377159881591797	0.9620469970703125	-0.14708799743652343	-0.026491300582885742	0.9373619995117187	-0.18656300354003907	-0.035221298217773436	0.9290869750976563	-0.17286099243164063	-0.028590700149536134	0.975031005859375	-0.15916000366210936	-0.018822000503540038	0.9694190063476562	-0.15516000366210939	-0.00824551010131836	0.9462169799804687	-0.1923009948730469	-0.015608599662780762	0.9386859741210938	-0.17669599914550782	-0.015923999786376954	0.977427978515625	-0.16469200134277343	-0.005731870174407959	0.973135009765625	-0.165406005859375	0.00475648021697998	0.9577789916992188	-0.19596299743652343	0.0008353090286254881	0.9503740234375	-0.19201699829101562	-0.03471329879760742	1.010989990234375
35	1.1666666666666667	-0.17986500549316406	-0.1346510009765625	0.9306480102539062	-0.17149200439453124	-0.10902899932861328	0.9405570068359375	-0.1731199951171875	-0.08782740020751953	0.9638359985351562	-0.17197500610351563	-0.055388099670410154	0.986833984375	-0.16676400756835938	-0.057889801025390625	0.9595969848632813	-0.1489219970703125	-0.05089530181884765	0.9534130249023437	-0.14375799560546876	-0.046543201446533206	0.9306270141601563	-0.1825959930419922	-0.058393199920654296	0.9294039916992187	-0.16242999267578126	-0.04064310073852539	0.9673800048828125	-0.15156300354003907	-0.033916999816894534	0.9620460205078125	-0.14751600646972657	-0.026253400802612306	0.936677978515625	-0.18695700073242189	-0.03518759918212891	0.929093994140625	-0.17189199829101562	-0.028096099853515626	0.974573974609375	-0.15904800415039064	-0.01870599937438965	0.9693330078125	-0.155447998046875	-0.008248080253601074	0.946531005859375	-0.19224899291992187	-0.01558489990234375	0.9383880004882813	-0.1782879943847656	-0.015677200317382813	0.9774559936523437	-0.16421299743652343	-0.005821680068969728	0.973177978515625	-0.16552000427246094	0.004710070133209229	0.957698974609375	-0.195406005859375	0.000978636980056762	0.94997998046875	-0.19248399353027343	-0.03464179992675781	1.0104600219726563
36	1.2	-0.18012600708007812	-0.1344980010986328	0.9306060180664063	-0.17202699279785155	-0.10889199829101562	0.9406099853515625	-0.17343299865722656	-0.0876530990600586	0.9637769775390626	-0.17258599853515624	-0.05530910110473633	0.9868090209960938	-0.1648780059814453	-0.058094398498535156	0.960343017578125	-0.14928399658203126	-0.05085300064086914	0.9532310180664062	-0.1440489959716797	-0.046395900726318356	0.9305369873046875	-0.18261500549316406	-0.05818420028686523	0.929364013671875	-0.16393299865722658	-0.0401260986328125	0.9672789916992187	-0.15255799865722655	-0.03360060119628906	0.9619600219726563	-0.14768299865722656	-0.02610219955444336	0.9366669921875	-0.18698599243164063	-0.03503559875488281	0.9290859985351563	-0.1709149932861328	-0.02755019950866699	0.97489697265625	-0.16014500427246095	-0.01867460060119629	0.9691220092773437	-0.15565199279785155	-0.008174200057983399	0.9466849975585937	-0.19237600708007813	-0.015458499908447266	0.9384730224609374	-0.17711399841308595	-0.015415900230407715	0.9769500122070313	-0.16477400207519532	-0.005543230056762695	0.9731279907226562	-0.1651889953613281	0.004966119766235353	0.9578770141601562	-0.19623300170898436	0.0010626300573348998	0.9503800048828125	-0.19278199768066406	-0.034551200866699217	1.0105999755859374
